<?xml version="1.0" encoding="UTF-8"?>
<svg xmlns="http://www.w3.org/2000/svg" viewBox="0 0 960 280" role="img" aria-labelledby="title desc">
  <title id="title">bloopy — music player logo (full)</title>
  <desc id="desc">Quarter note icon with a play symbol next to the wordmark 'bloopy' in rounded lowercase.</desc>
  <defs>
    <linearGradient id="grad" x1="0" y1="0" x2="1" y2="1">
      <stop offset="0%" stop-color="#7c4dff"/>
      <stop offset="100%" stop-color="#00e5ff"/>
    </linearGradient>
    <filter id="shadow" x="-50%" y="-50%" width="200%" height="200%">
      <feDropShadow dx="0" dy="6" stdDeviation="8" flood-opacity="0.25"/>
    </filter>
    <mask id="play-cut">
      <rect width="100%" height="100%" fill="#fff"/>
      <!-- the triangle hole inside the circle -->
      <polygon points="118,124 118,176 154,150" fill="#000"/>
    </mask>
  </defs>

  <!-- ICON -->
  <g transform="translate(40,30)">
    <!-- note head (circle) with play cut -->
    <circle cx="132" cy="150" r="50" fill="url(#grad)" mask="url(#play-cut)" filter="url(#shadow)"/>
    <!-- note stem -->
    <rect x="176" y="58" width="18" height="110" rx="9" fill="url(#grad)"/>
    <!-- note flag -->
    <path d="M194,70 C228,56 250,74 250,96 C250,120 224,134 194,138 Z" fill="url(#grad)"/>
  </g>

  <!-- WORDMARK: b l o o p y -->
  <g transform="translate(320, 180)" fill="#0b1020">
    <!-- b -->
    <path d="M0,-82 a16,16 0 0 1 16,-16 h12 a16,16 0 0 1 16,16v8 c10,-10 25,-16 42,-16 36,0 64,26 64,60 0,36 -28,62 -64,62 -20,0 -36,-7 -46,-19v57a16,16 0 0 1 -16,16h-8a16,16 0 0 1 -16,-16v-152z
             M60, -8 c0,17 12,30 30,30 18,0 30,-13 30,-30 0,-17 -12,-30 -30,-30 -18,0 -30,13 -30,30z"/>
    <!-- l -->
    <path d="M200,-96 a16,16 0 0 1 16,-16 h10 a16,16 0 0 1 16,16 v180 a16,16 0 0 1 -16,16h-10a16,16 0 0 1 -16,-16v-180z"/>
    <!-- o -->
    <path d="M270,-8 c0,-44 36,-78 82,-78 46,0 82,34 82,78 0,44 -36,78 -82,78 -46,0 -82,-34 -82,-78z
             M322,-8 c0,22 16,38 38,38 22,0 38,-16 38,-38 0,-22 -16,-38 -38,-38 -22,0 -38,16 -38,38z"/>
    <!-- o -->
    <path d="M454,-8 c0,-44 36,-78 82,-78 46,0 82,34 82,78 0,44 -36,78 -82,78 -46,0 -82,-34 -82,-78z
             M506,-8 c0,22 16,38 38,38 22,0 38,-16 38,-38 0,-22 -16,-38 -38,-38 -22,0 -38,16 -38,38z"/>
    <!-- p -->
    <path d="M648,-82 a16,16 0 0 1 16,-16h8a16,16 0 0 1 16,16v8c10,-12 26,-18 46,-18 36,0 64,26 64,60 0,36 -28,62 -64,62 -17,0 -31,-6 -42,-16v56a16,16 0 0 1 -16,16h-12a16,16 0 0 1 -16,-16v-152z
             M708,-8 c0,17 12,30 30,30 18,0 30,-13 30,-30 0,-17 -12,-30 -30,-30 -18,0 -30,13 -30,30z"/>
    <!-- y -->
    <path d="M856,10 l-52,-118 a16,16 0 0 1 29,-14l28,64 28,-64a16,16 0 0 1 29,14l-52,118v66a16,16 0 0 1 -16,16h-8a16,16 0 0 1 -16,-16v-66z"/>
  </g>
</svg>
